<svg xmlns="http://www.w3.org/2000/svg" viewBox="0 0 1700 400"><defs><style>.cls-1{fill:#160f41;}.cls-2{fill:#00aeef;}</style></defs><g id="Layer_1" data-name="Layer 1"><path class="cls-1" d="M647.23,215.63H608.66l-7.61,17.85H586.28L621,156.33h14.11l34.83,77.15H655Zm-4.73-11.25L628,170.66l-14.44,33.72Z"/><path class="cls-1" d="M727.86,159.64a25.38,25.38,0,0,1,11.41,9.48,29,29,0,0,1,0,29.26,25.28,25.28,0,0,1-11.41,9.53,42.64,42.64,0,0,1-17.47,3.31H693v22.26H678.65V156.33h31.74A42.64,42.64,0,0,1,727.86,159.64ZM724,195.13q4.84-4,4.85-11.36T724,172.42q-4.86-4-14.22-4H693v30.64h16.76Q719.09,199.09,724,195.13Z"/><path class="cls-1" d="M805.67,159.64a25.32,25.32,0,0,1,11.41,9.48,28.94,28.94,0,0,1,0,29.26,25.23,25.23,0,0,1-11.41,9.53,42.61,42.61,0,0,1-17.47,3.31H770.79v22.26H756.46V156.33H788.2A42.61,42.61,0,0,1,805.67,159.64Zm-3.91,35.49q4.85-4,4.85-11.36t-4.85-11.35q-4.85-4-14.22-4H770.79v30.64h16.75Q796.92,199.09,801.76,195.13Z"/><path class="cls-1" d="M834.28,156.33H848.6v65h40.34v12.12H834.28Z"/><path class="cls-1" d="M899.19,156.33h14.33v77.15H899.19Z"/><path class="cls-1" d="M991.11,221.47v12H933.25V156.33h56.32v12h-42V188.4h37.25v11.8H947.58v21.27Z"/><path class="cls-1" d="M1006,156.33h33.73a48.46,48.46,0,0,1,21.93,4.79,35.44,35.44,0,0,1,14.88,13.56,41.31,41.31,0,0,1,0,40.45,35.44,35.44,0,0,1-14.88,13.56,48.46,48.46,0,0,1-21.93,4.79H1006Zm33.07,65a32.66,32.66,0,0,0,14.93-3.25,23.27,23.27,0,0,0,9.92-9.26,29.68,29.68,0,0,0,0-27.89,23.19,23.19,0,0,0-9.92-9.25,32.66,32.66,0,0,0-14.93-3.26h-18.74v52.91Z"/><path class="cls-1" d="M1239.1,156.33l-25.57,77.15h-15.21l-19.06-57.09-19.4,57.09h-15.32L1119,156.33h14.88L1153,215l20-58.64h13.23l19.51,59,19.73-59Z"/><path class="cls-1" d="M1249.68,156.33H1264v77.15h-14.33Z"/><path class="cls-1" d="M1290.41,232.05a36,36,0,0,1-13.17-6.72l5-11.14a38.9,38.9,0,0,0,11.62,6.12,42.35,42.35,0,0,0,13.84,2.37q8.6,0,12.84-2.75a8.37,8.37,0,0,0,4.24-7.28,7,7,0,0,0-2.37-5.45,16.54,16.54,0,0,0-6-3.37q-3.63-1.2-9.92-2.75a115.58,115.58,0,0,1-14.27-4.19,23.39,23.39,0,0,1-9.37-6.56q-3.91-4.46-3.91-12.07a20.65,20.65,0,0,1,3.47-11.63,23.58,23.58,0,0,1,10.47-8.32q7-3.08,17.14-3.08a55.68,55.68,0,0,1,13.89,1.76,38.57,38.57,0,0,1,11.79,5.07l-4.52,11.13a44.86,44.86,0,0,0-10.58-4.52,39.91,39.91,0,0,0-10.69-1.54q-8.49,0-12.62,2.87a8.82,8.82,0,0,0-4.13,7.6,6.86,6.86,0,0,0,2.37,5.4,17.1,17.1,0,0,0,6,3.31q3.64,1.22,9.92,2.75a103.8,103.8,0,0,1,14.11,4.14,24.08,24.08,0,0,1,9.42,6.56q3.91,4.41,3.92,11.9a20.35,20.35,0,0,1-3.47,11.57,23.65,23.65,0,0,1-10.53,8.27q-7,3.08-17.19,3.09A58.79,58.79,0,0,1,1290.41,232.05Z"/><path class="cls-1" d="M1352,156.33h33.73a48.46,48.46,0,0,1,21.93,4.79,35.44,35.44,0,0,1,14.88,13.56,41.31,41.31,0,0,1,0,40.45,35.44,35.44,0,0,1-14.88,13.56,48.46,48.46,0,0,1-21.93,4.79H1352Zm33.07,65a32.66,32.66,0,0,0,14.93-3.25,23.27,23.27,0,0,0,9.92-9.26,29.68,29.68,0,0,0,0-27.89,23.19,23.19,0,0,0-9.92-9.25,32.66,32.66,0,0,0-14.93-3.26h-18.74v52.91Z"/><path class="cls-1" d="M1456.67,229.46a38,38,0,0,1-14.88-14.22,41,41,0,0,1,0-40.67,38,38,0,0,1,14.88-14.22,46.74,46.74,0,0,1,42.54,0,38.08,38.08,0,0,1,14.88,14.17,41.2,41.2,0,0,1,0,40.78,38.12,38.12,0,0,1-14.88,14.16,46.66,46.66,0,0,1-42.54,0Zm35.16-10.91a25.19,25.19,0,0,0,9.7-9.7,29.31,29.31,0,0,0,0-27.89,25.19,25.19,0,0,0-9.7-9.7,29.52,29.52,0,0,0-27.77,0,25.12,25.12,0,0,0-9.7,9.7,29.31,29.31,0,0,0,0,27.89,25.12,25.12,0,0,0,9.7,9.7,29.52,29.52,0,0,0,27.77,0Z"/><path class="cls-1" d="M1603.92,233.48l-.11-51.14-25.35,42.33h-6.39L1546.72,183v50.48h-13.67V156.33h11.79l30.64,51.14,30.09-51.14h11.8l.11,77.15Z"/><path class="cls-1" d="M595.12,289.15v12h19v6.17h-19v15h-7.29V283H616.5v6.12Z"/><path class="cls-1" d="M637.94,320.26a19.28,19.28,0,0,1-7.58-7.24,20.85,20.85,0,0,1,0-20.7,19.28,19.28,0,0,1,7.58-7.24,23.77,23.77,0,0,1,21.66,0,19.38,19.38,0,0,1,7.57,7.21,21,21,0,0,1,0,20.76,19.38,19.38,0,0,1-7.57,7.21,23.77,23.77,0,0,1-21.66,0Zm17.9-5.56a12.7,12.7,0,0,0,4.93-4.93,14.9,14.9,0,0,0,0-14.2,12.79,12.79,0,0,0-4.93-4.94,15.08,15.08,0,0,0-14.14,0,12.75,12.75,0,0,0-4.94,4.94,14.9,14.9,0,0,0,0,14.2,12.66,12.66,0,0,0,4.94,4.93,15,15,0,0,0,14.14,0Z"/><path class="cls-1" d="M710.66,322.31l-8-11.51a14,14,0,0,1-1.51.06h-8.87v11.45H685V283h16.16a21.79,21.79,0,0,1,8.89,1.68,13,13,0,0,1,5.81,4.83,13.54,13.54,0,0,1,2,7.46,13.29,13.29,0,0,1-2.16,7.63,12.84,12.84,0,0,1-6.2,4.77l9,12.91ZM708,291.22c-1.65-1.34-4.06-2-7.24-2h-8.53v15.66h8.53c3.18,0,5.59-.69,7.24-2.05a7.15,7.15,0,0,0,2.47-5.81A7.07,7.07,0,0,0,708,291.22Z"/><path class="cls-1" d="M764,289.2H751V283h33.33v6.17h-13v33.11H764Z"/><path class="cls-1" d="M832,283v39.28h-7.29V305.47H804.42v16.84h-7.3V283h7.3v16.22h20.31V283Z"/><path class="cls-1" d="M879.32,316.19v6.12H849.87V283h28.67v6.12H857.16v10.21h19v6h-19v10.83Z"/><path class="cls-1" d="M952.44,283v39.28h-6l-21.66-26.6v26.6h-7.23V283h6l21.66,26.6V283Z"/><path class="cls-1" d="M977.8,320.26a19.34,19.34,0,0,1-7.58-7.24,20.85,20.85,0,0,1,0-20.7,19.34,19.34,0,0,1,7.58-7.24,23.77,23.77,0,0,1,21.66,0,19.32,19.32,0,0,1,7.57,7.21,21,21,0,0,1,0,20.76,19.32,19.32,0,0,1-7.57,7.21,23.77,23.77,0,0,1-21.66,0Zm17.9-5.56a12.79,12.79,0,0,0,4.94-4.93,15,15,0,0,0,0-14.2,12.88,12.88,0,0,0-4.94-4.94,15.08,15.08,0,0,0-14.14,0,12.82,12.82,0,0,0-4.94,4.94,15,15,0,0,0,0,14.2,12.72,12.72,0,0,0,4.94,4.93,15,15,0,0,0,14.14,0Z"/><path class="cls-1" d="M1059.72,283v39.28h-6l-21.66-26.6v26.6h-7.24V283h6l21.66,26.6V283Z"/><path class="cls-1" d="M1102.62,284.71a13,13,0,0,1,5.81,4.83,14.75,14.75,0,0,1,0,14.9,12.92,12.92,0,0,1-5.81,4.85,21.81,21.81,0,0,1-8.9,1.68h-8.86v11.34h-7.3V283h16.16A21.81,21.81,0,0,1,1102.62,284.71Zm-2,18.07a8,8,0,0,0,0-11.56c-1.65-1.34-4.06-2-7.24-2h-8.53v15.6h8.53Q1098.16,304.8,1100.63,302.78Z"/><path class="cls-1" d="M1150.73,322.31l-8-11.51a14.06,14.06,0,0,1-1.52.06h-8.86v11.45H1125V283h16.16a21.81,21.81,0,0,1,8.9,1.68,12.93,12.93,0,0,1,5.8,4.83,13.45,13.45,0,0,1,2,7.46,13.29,13.29,0,0,1-2.16,7.63,12.79,12.79,0,0,1-6.2,4.77l9,12.91Zm-2.63-31.09c-1.65-1.34-4.06-2-7.24-2h-8.53v15.66h8.53c3.18,0,5.59-.69,7.24-2.05a7.14,7.14,0,0,0,2.46-5.81A7.07,7.07,0,0,0,1148.1,291.22Z"/><path class="cls-1" d="M1180.86,320.26a19.32,19.32,0,0,1-7.57-7.24,20.85,20.85,0,0,1,0-20.7,19.32,19.32,0,0,1,7.57-7.24,23.77,23.77,0,0,1,21.66,0,19.34,19.34,0,0,1,7.58,7.21,21,21,0,0,1,0,20.76,19.34,19.34,0,0,1-7.58,7.21,23.77,23.77,0,0,1-21.66,0Zm17.9-5.56a12.72,12.72,0,0,0,4.94-4.93,14.9,14.9,0,0,0,0-14.2,12.82,12.82,0,0,0-4.94-4.94,15.08,15.08,0,0,0-14.14,0,12.79,12.79,0,0,0-4.93,4.94,14.9,14.9,0,0,0,0,14.2,12.7,12.7,0,0,0,4.93,4.93,15,15,0,0,0,14.14,0Z"/><path class="cls-1" d="M1235.18,289.15v12h19v6.17h-19v15h-7.3V283h28.68v6.12Z"/><path class="cls-1" d="M1270.92,283h7.3v39.28h-7.3Z"/><path class="cls-1" d="M1304.08,289.2h-13V283h33.33v6.17h-13v33.11h-7.3Z"/><path class="cls-1" d="M1363.36,321.58a18.3,18.3,0,0,1-6.7-3.42l2.52-5.67a19.83,19.83,0,0,0,5.92,3.11,21.41,21.41,0,0,0,7,1.21q4.38,0,6.54-1.4a4.26,4.26,0,0,0,2.16-3.71,3.58,3.58,0,0,0-1.21-2.78,8.7,8.7,0,0,0-3.05-1.71c-1.24-.41-2.92-.87-5-1.4a58.52,58.52,0,0,1-7.27-2.13,11.93,11.93,0,0,1-4.77-3.34,9,9,0,0,1-2-6.14,10.45,10.45,0,0,1,1.77-5.92,11.89,11.89,0,0,1,5.33-4.24,21.51,21.51,0,0,1,8.72-1.57,28.09,28.09,0,0,1,7.07.9,19.73,19.73,0,0,1,6,2.58l-2.3,5.67a22.77,22.77,0,0,0-5.39-2.31,20.31,20.31,0,0,0-5.44-.78q-4.33,0-6.43,1.46a4.49,4.49,0,0,0-2.1,3.87,3.51,3.51,0,0,0,1.2,2.75,8.8,8.8,0,0,0,3.06,1.68q1.86.61,5,1.41a52.49,52.49,0,0,1,7.18,2.1,12.3,12.3,0,0,1,4.8,3.34,8.77,8.77,0,0,1,2,6.06,10.4,10.4,0,0,1-1.76,5.89,12.07,12.07,0,0,1-5.36,4.21,22,22,0,0,1-8.76,1.57A30,30,0,0,1,1363.36,321.58Z"/><path class="cls-1" d="M1432,316.19v6.12h-29.45V283h28.67v6.12h-21.38v10.21h19v6h-19v10.83Z"/><path class="cls-1" d="M1454.71,320.26a19.25,19.25,0,0,1-7.52-7.21,21.06,21.06,0,0,1,0-20.76,19.4,19.4,0,0,1,7.55-7.21,22.11,22.11,0,0,1,10.74-2.61,22.42,22.42,0,0,1,8.81,1.68,18,18,0,0,1,6.74,4.88l-4.72,4.44a13.73,13.73,0,0,0-10.49-4.6,14.7,14.7,0,0,0-7.24,1.76,12.74,12.74,0,0,0-5,4.91,15,15,0,0,0,0,14.26,12.64,12.64,0,0,0,5,4.9,14.7,14.7,0,0,0,7.24,1.77,13.65,13.65,0,0,0,10.49-4.66l4.72,4.49a18,18,0,0,1-6.76,4.89,22.71,22.71,0,0,1-8.84,1.68A22.12,22.12,0,0,1,1454.71,320.26Z"/><path class="cls-1" d="M1502.88,289.2h-13V283h33.33v6.17h-13v33.11h-7.3Z"/><path class="cls-1" d="M1543,320.26a19.28,19.28,0,0,1-7.58-7.24,20.85,20.85,0,0,1,0-20.7,19.28,19.28,0,0,1,7.58-7.24,23.75,23.75,0,0,1,21.65,0,19.34,19.34,0,0,1,7.58,7.21,21,21,0,0,1,0,20.76,19.34,19.34,0,0,1-7.58,7.21,23.75,23.75,0,0,1-21.65,0Zm17.9-5.56a12.7,12.7,0,0,0,4.93-4.93,14.9,14.9,0,0,0,0-14.2,12.79,12.79,0,0,0-4.93-4.94,15.08,15.08,0,0,0-14.14,0,12.75,12.75,0,0,0-4.94,4.94,14.9,14.9,0,0,0,0,14.2,12.66,12.66,0,0,0,4.94,4.93,15,15,0,0,0,14.14,0Z"/><path class="cls-1" d="M1615.67,322.31l-8-11.51a13.85,13.85,0,0,1-1.51.06h-8.87v11.45H1590V283h16.16a21.76,21.76,0,0,1,8.89,1.68,13,13,0,0,1,5.81,4.83,13.45,13.45,0,0,1,2,7.46,13.29,13.29,0,0,1-2.16,7.63,12.84,12.84,0,0,1-6.2,4.77l9,12.91ZM1613,291.22c-1.65-1.34-4.06-2-7.24-2h-8.53v15.66h8.53c3.18,0,5.59-.69,7.24-2.05a7.15,7.15,0,0,0,2.47-5.81A7.07,7.07,0,0,0,1613,291.22Z"/><rect class="cls-2" x="583.92" y="255.73" width="1044.17" height="3"/></g><g id="Layer_4" data-name="Layer 4"><path class="cls-2" d="M594.86,39.48l-23.33,84.46s-69.52-2-138.23,8.38L419.49,78.91C476.42,56.12,541.64,43.19,594.86,39.48Z"/><path class="cls-1" d="M202.91,197.13,194.16,163l-37.94,116,37.44-.19,16.45,81.49-137.43,0,87.5-311.75h78.38l26.2,103.66A580.3,580.3,0,0,0,202.91,197.13Zm87.54,53.37,54.46-202h67l51.88,201.88,34.1-114.64c19.19-1.92,44.7-2.25,70.55-2.13L503.89,360.24h-78L376.56,170.5,325,360.24l-78,1-31.85-118s41-32.24,62.26-44.72Z"/><path class="cls-2" d="M72.16,360.24c43.43-94.78,138.87-184.44,244-237.3l-13.78,49.53c-126.51,78.89-168.19,128-207.55,187.77Z"/></g></svg>